<?xml version="1.0" standalone="no"?>
<!DOCTYPE svg PUBLIC "-//W3C//DTD SVG 20010904//EN"
 "http://www.w3.org/TR/2001/REC-SVG-20010904/DTD/svg10.dtd">
<svg version="1.0" xmlns="http://www.w3.org/2000/svg"
 width="900.000000pt" height="852.000000pt" viewBox="0 0 900.000000 852.000000"
 preserveAspectRatio="xMidYMid meet">
<metadata>
Created by potrace 1.10, written by Peter Selinger 2001-2011
</metadata>
<g transform="translate(0.000000,852.000000) scale(0.100000,-0.100000)"
fill="#ff9900" stroke="none">
<path d="M1144 8443 c10 -10 87 -55 151 -87 28 -14 64 -35 80 -45 17 -11 46
-28 65 -38 87 -46 156 -87 171 -99 8 -8 21 -14 27 -14 6 0 45 -20 85 -45 41
-25 78 -45 82 -45 4 0 27 -13 52 -30 24 -16 50 -30 58 -30 8 0 17 -5 20 -11 4
-5 17 -14 28 -20 12 -5 29 -13 37 -19 38 -24 172 -100 179 -100 3 0 22 -11 41
-24 19 -12 67 -40 105 -61 122 -66 139 -76 170 -96 17 -10 37 -21 45 -25 8 -3
22 -10 30 -15 15 -9 49 -28 162 -92 31 -18 90 -50 130 -71 40 -21 75 -42 78
-46 3 -3 19 -13 35 -22 59 -29 276 -150 335 -187 14 -8 54 -30 90 -49 36 -19
72 -40 80 -47 8 -6 35 -22 60 -34 49 -24 64 -32 128 -73 24 -16 49 -28 56 -28
6 0 17 -5 23 -11 12 -12 33 -25 108 -64 28 -14 64 -34 80 -45 17 -10 62 -35
100 -55 39 -21 75 -42 82 -47 7 -5 27 -18 45 -27 130 -70 177 -97 208 -117 19
-13 39 -24 43 -24 5 0 30 -14 55 -31 65 -44 111 -42 182 5 30 20 60 41 67 46
7 6 15 10 17 10 5 0 194 108 226 130 8 6 24 15 35 20 11 6 34 19 50 30 17 11
37 23 45 27 8 3 103 59 210 123 107 64 202 119 210 123 8 4 29 16 45 27 17 11
50 31 75 45 25 14 65 37 90 52 25 14 59 33 75 42 17 9 48 29 71 43 23 15 56
35 75 45 32 17 88 51 134 80 11 7 40 24 65 38 25 14 59 34 75 45 17 11 53 32
81 47 59 32 246 145 254 153 3 3 16 11 30 17 26 13 77 43 180 106 34 20 68 37
75 37 8 0 18 6 22 13 4 8 15 17 23 20 8 4 29 16 45 27 17 11 39 24 50 30 11 6
34 19 50 30 31 20 51 31 125 72 25 13 63 35 85 49 22 14 47 29 55 33 17 8 35
19 95 57 22 14 47 29 55 32 8 4 29 16 45 27 17 11 39 24 50 30 11 5 29 16 40
22 78 50 195 117 218 124 57 20 -11 25 -310 22 l-328 -3 -70 -46 c-38 -25 -77
-49 -85 -52 -8 -4 -28 -16 -45 -27 -16 -11 -37 -23 -45 -27 -14 -6 -145 -81
-180 -103 -8 -6 -32 -19 -52 -30 -20 -11 -56 -32 -80 -47 -73 -47 -82 -53
-103 -62 -11 -5 -37 -21 -58 -35 -21 -14 -41 -26 -45 -26 -4 0 -23 -11 -42
-23 -19 -13 -66 -41 -105 -62 -38 -20 -77 -43 -85 -50 -8 -6 -22 -15 -30 -19
-8 -3 -28 -15 -45 -26 -16 -11 -37 -23 -45 -27 -8 -4 -48 -26 -88 -50 -40 -24
-75 -43 -78 -43 -3 0 -20 -11 -37 -24 -18 -14 -43 -29 -57 -35 -14 -6 -34 -17
-45 -23 -39 -26 -101 -63 -135 -81 -89 -49 -96 -54 -195 -114 -11 -7 -38 -22
-60 -34 -22 -11 -59 -34 -83 -50 -24 -16 -45 -29 -47 -29 -2 0 -49 -27 -103
-60 -55 -33 -102 -60 -105 -60 -3 0 -25 -12 -49 -27 -69 -45 -81 -52 -130 -78
-26 -13 -49 -29 -53 -35 -3 -5 -13 -10 -22 -10 -9 0 -24 -7 -33 -15 -18 -16
-88 -57 -137 -80 -30 -14 -36 -14 -65 0 -31 14 -121 64 -178 98 -14 9 -47 27
-75 42 -27 14 -66 35 -85 47 -19 11 -55 31 -79 44 -24 13 -49 28 -55 33 -6 5
-51 30 -101 56 -49 26 -97 52 -105 59 -8 6 -37 23 -63 36 -68 35 -87 46 -100
59 -6 6 -17 11 -25 11 -8 0 -34 14 -59 30 -24 17 -46 30 -50 30 -3 0 -25 14
-50 30 -24 17 -50 30 -58 30 -8 0 -16 4 -19 9 -3 5 -25 19 -48 31 -72 37 -152
82 -164 91 -11 9 -76 45 -136 76 -15 8 -30 18 -33 24 -4 5 -12 9 -20 9 -8 0
-34 14 -58 30 -25 17 -47 30 -50 30 -3 0 -38 19 -79 43 -40 24 -93 53 -118 66
-25 12 -58 31 -75 42 -16 10 -40 23 -52 28 -11 5 -24 15 -28 20 -3 6 -12 11
-20 11 -8 0 -31 12 -52 26 -21 14 -47 30 -58 35 -11 5 -38 20 -60 33 -22 13
-67 38 -100 56 -33 19 -78 44 -100 57 -22 12 -51 28 -65 34 -14 5 -39 21 -57
35 -17 13 -38 24 -47 24 -8 0 -17 4 -20 9 -3 5 -29 21 -58 37 -29 15 -64 33
-78 41 -19 10 -101 13 -364 13 -187 0 -336 -3 -332 -7z"/>
<path d="M8906 8052 c-91 -54 -127 -75 -211 -121 -33 -19 -79 -47 -103 -62
-24 -16 -48 -29 -54 -29 -5 0 -27 -13 -48 -30 -21 -16 -40 -30 -44 -30 -3 0
-85 -47 -182 -105 -97 -58 -180 -105 -184 -105 -4 0 -13 -7 -20 -15 -7 -8 -19
-15 -27 -15 -8 0 -29 -11 -47 -25 -18 -14 -55 -37 -82 -51 -73 -40 -96 -53
-129 -74 -16 -11 -47 -28 -67 -40 -20 -11 -56 -32 -80 -47 -69 -45 -82 -52
-103 -63 -11 -6 -33 -19 -50 -30 -16 -11 -39 -24 -51 -29 -11 -5 -50 -27 -85
-48 -35 -22 -71 -42 -79 -46 -8 -4 -28 -16 -45 -27 -16 -11 -37 -23 -45 -27
-8 -4 -31 -18 -50 -31 -19 -13 -44 -28 -55 -33 -11 -5 -33 -18 -50 -29 -16
-11 -39 -24 -50 -30 -11 -6 -40 -22 -65 -37 -25 -14 -58 -33 -75 -42 -16 -9
-48 -29 -71 -43 -23 -15 -56 -35 -75 -45 -19 -10 -52 -30 -74 -44 -22 -14 -47
-29 -55 -32 -8 -4 -28 -16 -45 -26 -16 -11 -52 -32 -80 -47 -27 -14 -52 -30
-55 -33 -3 -4 -23 -16 -45 -27 -22 -11 -58 -31 -80 -45 -22 -14 -47 -29 -55
-32 -8 -4 -28 -16 -45 -27 -16 -11 -39 -24 -50 -30 -11 -6 -33 -19 -50 -29
-16 -11 -52 -32 -79 -46 -27 -15 -63 -36 -80 -48 -75 -50 -86 -57 -94 -57 -55
0 -353 -286 -395 -380 -4 -8 -16 -28 -27 -45 -11 -16 -24 -40 -29 -52 -5 -11
-15 -24 -20 -28 -6 -3 -11 -13 -11 -22 0 -9 -6 -24 -13 -32 -7 -9 -21 -36 -31
-61 -10 -25 -24 -58 -31 -75 -50 -115 -83 -253 -104 -427 -5 -43 -12 -82 -16
-88 -9 -14 -13 -1300 -4 -1305 4 -3 31 28 60 67 51 71 362 388 380 388 5 0 17
8 27 18 9 9 38 33 62 51 25 19 52 41 60 48 23 20 180 133 184 133 3 0 33 19
68 43 35 24 70 46 78 50 8 4 27 15 42 25 34 22 157 99 183 115 54 33 166 104
215 136 30 20 98 63 150 95 52 32 129 80 170 107 41 27 84 53 95 59 29 14 55
31 96 63 20 15 40 27 44 27 4 0 33 17 64 38 31 21 90 58 131 82 41 24 89 54
106 67 17 13 34 23 37 23 4 0 35 20 70 43 34 24 81 55 104 68 23 13 74 44 113
69 39 25 79 50 88 55 9 6 36 23 59 38 24 15 45 27 48 27 3 0 34 20 71 45 36
25 69 45 74 45 5 0 15 6 23 14 7 8 29 23 48 33 37 20 91 54 99 63 3 3 14 10
25 17 28 16 302 185 330 203 90 58 173 108 208 128 22 12 48 29 57 37 9 8 19
15 23 15 3 0 38 22 79 50 40 27 83 50 96 50 l22 0 0 874 c0 481 -4 877 -8 880
-4 2 -43 -16 -86 -42z"/>
<path d="M40 5161 l0 -2890 32 -23 c41 -29 66 -44 98 -58 14 -6 39 -22 57 -36
17 -13 35 -24 39 -24 3 0 40 -20 81 -45 40 -25 76 -45 79 -45 4 0 26 -13 51
-30 24 -16 46 -30 49 -30 2 0 23 -12 47 -27 65 -42 80 -51 107 -63 14 -6 38
-22 55 -34 16 -12 37 -26 45 -29 8 -4 42 -23 75 -42 33 -19 69 -40 80 -45 11
-6 34 -19 50 -30 17 -11 37 -23 45 -26 8 -4 22 -13 30 -19 8 -7 42 -27 75 -45
33 -18 79 -46 103 -61 24 -16 45 -29 48 -29 5 0 133 -74 174 -100 8 -6 24 -15
35 -20 11 -6 34 -19 50 -30 17 -11 38 -23 47 -26 9 -3 19 -12 22 -20 3 -8 12
-14 20 -14 8 0 32 -12 53 -26 21 -14 47 -30 58 -35 11 -5 27 -13 35 -19 35
-22 321 -190 325 -190 2 0 21 -12 42 -26 21 -14 47 -30 58 -35 11 -5 34 -18
50 -29 17 -11 39 -24 50 -30 11 -6 34 -19 50 -30 17 -11 39 -24 50 -29 11 -5
37 -21 58 -35 21 -14 41 -26 45 -26 4 0 23 -11 42 -23 19 -13 67 -41 105 -62
39 -20 77 -43 85 -50 8 -6 22 -15 30 -19 8 -3 29 -15 45 -26 17 -11 39 -24 50
-30 11 -6 34 -19 50 -29 17 -11 53 -32 80 -46 28 -15 64 -37 80 -49 17 -11 48
-30 70 -41 22 -11 54 -30 71 -42 17 -13 50 -33 75 -46 88 -48 144 -80 158 -90
16 -13 48 -33 76 -46 11 -5 36 -20 55 -32 34 -23 144 -79 205 -105 40 -17 75
-24 164 -34 132 -15 204 25 241 133 20 61 20 70 20 2531 -1 2105 -3 2481 -15
2536 -8 36 -14 79 -15 95 0 17 -7 43 -15 59 -8 15 -15 38 -15 50 -1 11 -7 32
-15 46 -8 14 -14 34 -15 46 0 23 -76 183 -123 259 -62 100 -152 212 -223 276
-38 33 -185 144 -204 153 -8 4 -42 22 -75 41 -33 18 -82 45 -110 59 -27 14
-57 29 -65 34 -8 5 -31 17 -50 27 -173 89 -227 117 -240 125 -8 5 -35 18 -60
30 -25 12 -85 43 -135 69 -49 27 -153 81 -230 121 -77 39 -167 87 -200 106
-33 18 -67 36 -75 39 -8 4 -24 11 -34 17 -11 6 -67 35 -125 65 -58 30 -114 58
-123 64 -33 17 -53 28 -138 71 -90 47 -162 84 -195 101 -11 6 -63 33 -115 60
-52 27 -102 55 -111 63 -8 8 -22 14 -30 15 -8 0 -45 18 -84 39 -38 21 -117 62
-175 90 -58 29 -107 55 -110 59 -3 4 -70 39 -150 80 -80 40 -154 77 -165 83
-35 19 -49 27 -100 53 -27 14 -95 49 -150 78 -55 29 -172 90 -260 136 -88 45
-164 87 -170 92 -5 5 -19 9 -32 9 l-23 0 0 -2889z"/>
<path d="M8935 5445 c-22 -14 -47 -28 -55 -32 -8 -4 -33 -19 -55 -33 -22 -14
-49 -30 -60 -37 -41 -24 -209 -129 -234 -145 -14 -10 -36 -22 -48 -28 -13 -5
-23 -14 -23 -20 0 -5 -8 -10 -19 -10 -10 0 -24 -7 -31 -15 -7 -8 -17 -15 -22
-15 -5 0 -28 -12 -51 -27 -23 -16 -51 -33 -62 -40 -11 -7 -74 -45 -140 -85
-66 -39 -134 -82 -151 -95 -17 -13 -34 -23 -37 -23 -3 0 -25 -13 -49 -29 -24
-15 -70 -43 -103 -61 -33 -18 -64 -39 -68 -46 -4 -8 -14 -14 -22 -14 -7 0 -44
-20 -82 -45 -37 -25 -72 -45 -77 -45 -4 0 -25 -13 -45 -28 -20 -16 -43 -32
-51 -35 -8 -4 -28 -16 -45 -27 -16 -11 -39 -24 -50 -30 -23 -12 -44 -25 -100
-61 -22 -14 -47 -29 -55 -32 -8 -4 -28 -16 -45 -27 -16 -11 -37 -23 -45 -27
-8 -4 -43 -26 -78 -50 -35 -24 -66 -43 -70 -43 -4 0 -37 -20 -73 -43 -36 -24
-72 -47 -80 -50 -8 -4 -27 -16 -44 -27 -16 -11 -37 -23 -45 -27 -8 -4 -33 -19
-55 -33 -22 -14 -49 -30 -60 -37 -46 -28 -308 -189 -333 -205 -15 -10 -33 -21
-41 -24 -7 -4 -25 -18 -39 -31 -14 -13 -36 -26 -49 -29 -13 -4 -23 -9 -23 -13
0 -4 -24 -25 -52 -46 -29 -22 -93 -74 -143 -115 -49 -42 -103 -87 -120 -100
-16 -14 -94 -89 -173 -168 -186 -186 -369 -429 -416 -552 -4 -8 -15 -30 -27
-49 -11 -18 -29 -63 -40 -100 -12 -36 -25 -74 -31 -85 -5 -10 -13 -53 -17 -95
-10 -99 -14 -1873 -5 -2081 7 -156 8 -161 38 -207 34 -53 100 -93 152 -93 34
0 172 33 201 49 10 5 25 12 33 15 8 4 29 15 45 26 17 11 37 23 45 27 9 5 68
41 132 80 64 40 119 73 123 73 4 0 24 13 45 30 21 16 40 30 43 30 4 0 23 12
44 26 21 14 47 30 58 35 11 6 29 15 40 22 80 49 103 63 120 74 11 7 73 45 138
85 65 40 130 81 145 90 15 10 34 21 42 25 8 3 44 25 80 48 36 23 84 53 106 66
53 30 278 168 313 191 14 10 33 21 41 25 8 4 33 19 54 35 21 15 44 28 49 28 6
0 18 7 27 15 9 8 35 25 57 37 40 23 209 126 262 160 14 10 35 22 46 28 11 6
32 18 46 28 22 14 86 53 169 102 13 8 276 169 318 195 10 6 35 22 57 35 23 14
50 31 60 38 11 6 27 15 35 19 8 4 33 19 54 35 21 15 43 28 47 28 4 0 37 20 73
45 37 25 68 45 71 45 3 0 24 12 48 27 57 37 79 51 97 60 8 4 31 18 50 31 19
13 44 28 55 33 11 5 34 18 50 29 17 11 37 23 45 27 8 5 41 25 72 46 31 20 62
37 68 37 7 0 10 500 10 1630 0 1298 -3 1630 -12 1630 -7 -1 -31 -12 -53 -25z"/>
</g>
</svg>
